<svg width="368" height="368" viewBox="0 0 368 368" fill="none" xmlns="http://www.w3.org/2000/svg">
<mask id="path-1-inside-1_591_1359" fill="white">
<path d="M0 0H368V368H0V0Z"/>
</mask>
<path d="M0 0V-12H-12V0H0ZM368 0H380V-12H368V0ZM368 368V380H380V368H368ZM0 368H-12V380H0V368ZM0 12H368V-12H0V12ZM356 0V368H380V0H356ZM368 356H0V380H368V356ZM12 368V0H-12V368H12Z" fill="white" mask="url(#path-1-inside-1_591_1359)"/>
<path d="M304 76V64H64V76H52V292H64V304H304V292H316V76H304ZM76 88H148V100H76V88ZM244 244H232V268H208V280H160V268H136V244H124V196H136V172H160V160H208V172H232V196H244V244ZM292 136H76V124H148V112H160V100H172V88H292V136Z" fill="white"/>
<path d="M220 196V244H208V256H160V244H148V196H160V232H172V208H196V196H160V184H208V196H220Z" fill="white"/>
</svg>
